<?xml version="1.0" encoding="utf-8"?>
<!-- Generator: Adobe Illustrator 25.0.0, SVG Export Plug-In . SVG Version: 6.00 Build 0)  -->
<svg version="1.1" id="Layer_1" xmlns="http://www.w3.org/2000/svg" xmlns:xlink="http://www.w3.org/1999/xlink" x="0px" y="0px"
	 viewBox="0 0 500 500" style="enable-background:new 0 0 500 500;" xml:space="preserve">
<style type="text/css">
	.st0{fill:#001E36;}
	.st1{fill:#31A8FF;}
</style>
<g id="Layer_2_1_">
	<g id="Surfaces">
		<g id="Photo_Surface">
			<g id="Outline_no_shadow">
				<path class="st0" d="M112.7,42.7h274.6c41.6,0,75.3,33.7,75.3,75.3v264c0,41.6-33.7,75.3-75.3,75.3H112.7
					c-41.6,0-75.3-33.7-75.3-75.3V118C37.4,76.4,71.1,42.7,112.7,42.7z"/>
			</g>
		</g>
	</g>
	<g id="Outlined_Mnemonics_Logos">
		<g id="Ps">
			<path class="st1" d="M133.1,333.4V151.1c0-1.2,0.5-1.9,1.8-1.9c3,0,5.8,0,9.9-0.2c4.3-0.2,8.7-0.2,13.5-0.4
				c4.8-0.2,9.9-0.2,15.4-0.4c5.5-0.2,10.8-0.2,16.1-0.2c14.5,0,26.6,1.8,36.5,5.5c8.9,3,17,8,23.7,14.5
				c5.7,5.7,10.1,12.6,12.9,20.2c2.7,7.4,4.1,15.1,4.1,23c0,15.2-3.5,27.8-10.6,37.7c-7.1,9.9-17,17.4-28.5,21.6
				c-12,4.4-25.3,6-39.9,6c-4.3,0-7.1,0-8.9-0.2c-1.8-0.2-4.3-0.2-7.6-0.2v56.9c0.2,1.2-0.7,2.3-1.9,2.5c-0.2,0-0.4,0-0.7,0h-33.7
				C133.8,335.7,133.1,335,133.1,333.4z M171.7,183.4v59.5c2.5,0.2,4.8,0.4,6.9,0.4h9.4c6.9,0,13.8-1.1,20.4-3.2
				c5.7-1.6,10.6-5,14.5-9.4c3.7-4.4,5.5-10.5,5.5-18.2c0.2-5.5-1.2-11-4.1-15.8c-3-4.6-7.3-8.1-12.4-10.1
				c-6.6-2.7-13.6-3.7-20.9-3.5c-4.6,0-8.7,0-12,0.2C175.4,183,172.9,183.2,171.7,183.4L171.7,183.4z"/>
			<path class="st1" d="M377.6,232.1c-5.3-2.8-11-4.8-17-6c-6.6-1.4-13.1-2.3-19.8-2.3c-3.5-0.2-7.3,0.4-10.6,1.2
				c-2.3,0.5-4.3,1.8-5.5,3.5c-0.9,1.4-1.4,3.2-1.4,4.8c0,1.6,0.7,3.2,1.8,4.6c1.6,1.9,3.7,3.5,6,4.8c4.1,2.1,8.3,4.1,12.6,5.8
				c9.6,3.2,18.8,7.6,27.3,12.9c5.8,3.7,10.6,8.7,14,14.7c2.8,5.7,4.3,11.9,4.1,18.2c0.2,8.3-2.3,16.7-6.9,23.6
				c-5,7.1-11.9,12.6-19.8,15.8c-8.7,3.7-19.3,5.7-32.1,5.7c-8.1,0-16.1-0.7-24.1-2.3c-6.2-1.1-12.4-3-18.1-5.7
				c-1.2-0.7-2.1-1.9-1.9-3.4v-30.8c0-0.5,0.2-1.2,0.7-1.6c0.5-0.4,1.1-0.2,1.6,0.2c6.9,4.1,14.2,6.9,22,8.7
				c6.7,1.8,13.8,2.7,20.9,2.7c6.7,0,11.5-0.9,14.7-2.5c2.8-1.2,4.8-4.3,4.8-7.4c0-2.5-1.4-4.8-4.3-7.1c-2.8-2.3-8.7-5-17.4-8.3
				c-9-3.2-17.4-7.4-25.2-12.8c-5.5-3.9-10.1-9-13.5-15.1c-2.8-5.7-4.3-11.9-4.1-18.1c0-7.6,2.1-14.9,6-21.4
				c4.4-7.1,11-12.8,18.6-16.3c8.3-4.3,18.8-6.2,31.4-6.2c7.3,0,14.7,0.5,22,1.6c5.3,0.7,10.5,2.1,15.2,4.1c0.7,0.2,1.4,0.9,1.8,1.6
				c0.2,0.7,0.4,1.4,0.4,2.1v28.9c0,0.7-0.4,1.4-0.9,1.8C379.2,232.5,378.3,232.5,377.6,232.1z"/>
		</g>
	</g>
</g>
</svg>
