<svg xmlns="http://www.w3.org/2000/svg" xmlns:xlink="http://www.w3.org/1999/xlink" viewBox="0 0 66 59" fill="#fff" fill-rule="evenodd" stroke="#000" stroke-linecap="round" stroke-linejoin="round"><use xlink:href="#A" x=".5" y=".5"/><symbol id="A" overflow="visible"><g stroke="none" fill-rule="nonzero"><path d="M63.93 14.326a17.91 17.91 0 0 0-.405-3.78c-.5-2.553-1.828-4.893-3.8-6.7a12.05 12.05 0 0 0-3.447-2.258c-1.243-.6-2.57-1-3.94-1.22-1.354-.25-2.85-.25-4.203-.368h-33.45c-1.042.018-2.082.102-3.113.251-1.027.114-2.033.36-3 .736l-.95.368a17.47 17.47 0 0 0-2.585 1.589c-.264.25-.545.368-.8.602a10.91 10.91 0 0 0-2.48 3.044C1.1 7.738.63 8.976.405 10.262.204 11.508.069 12.764 0 14.025v29.153a17.91 17.91 0 0 0 .405 3.78c.5 2.553 1.828 4.893 3.8 6.7a12.06 12.06 0 0 0 3.394 2.191c1.243.6 2.57 1 3.94 1.22 1.354.25 2.85.25 4.203.368h32.466a24.49 24.49 0 0 0 4.203-.368 14.59 14.59 0 0 0 3.87-1.204 15.54 15.54 0 0 0 3.517-2.191 10.9 10.9 0 0 0 2.445-3.044c.67-1.138 1.128-2.377 1.354-3.663a35.77 35.77 0 0 0 .405-3.78V14.338z" fill="#f05138"/><path d="M42.737 44.431c-5.698 2.96-13.525 3.26-21.386.234-6.133-2.347-11.384-6.4-15.07-11.607a25.66 25.66 0 0 0 5.575 3c8.125 3.345 16.268 3.194 21.984 0-7.545-5.46-14.34-11.798-20.225-18.866-1.014-1.02-1.921-2.141-2.708-3.345a156.1 156.1 0 0 0 19.663 13.38c-5.032-4.852-9.66-10.07-13.84-15.605a135.69 135.69 0 0 0 22.86 16.836l.88.468c.238-.545.444-1.104.616-1.673 1.9-6.222-.264-13.296-5.012-19.15 10.992 5.97 17.5 17.193 14.8 26.593 0 .25-.14.502-.23.753l.088.1c5.434 6.105 3.94 12.56 3.254 11.34-2.972-5.1-8.477-3.53-11.238-2.46z" fill="#fefefe"/></g></symbol></svg>