<svg xmlns="http://www.w3.org/2000/svg" viewBox="0 0 1025 1025"><defs><style>.cls-1,.cls-2{stroke:#000;stroke-miterlimit:10;}.cls-2{fill:#fff;}</style></defs><g id="Capa_2" data-name="Capa 2"><rect class="cls-1" x="0.5" y="0.5" width="1024" height="1024"/></g><g id="Capa_1" data-name="Capa 1"><path class="cls-2" d="M950.15,192H73.85A73.93,73.93,0,0,0,0,265.85v492.3A73.93,73.93,0,0,0,73.85,832h876.3A73.92,73.92,0,0,0,1024,758.15V265.85A73.93,73.93,0,0,0,950.15,192ZM576,703.88,448,704V512L352,635.08,256,512V704H128V320H256l96,128,96-128,128-.12Zm191.09,32L608,512h96V320H832V512h96Z" transform="translate(0.5 0.5)"/></g></svg>